<svg width="16" height="18" viewBox="0 0 16 18" fill="none" xmlns="http://www.w3.org/2000/svg">
<path d="M12.3763 11.4158L13.8291 15.3238C11.8486 16.5543 9.55681 17.1914 7.22536 17.1594C2.48633 17.1594 0.159871 14.1987 0.159871 10.2618C0.116744 9.03043 0.324226 7.80312 0.769716 6.65432C1.21521 5.50551 1.88943 4.4592 2.75148 3.57881C3.61353 2.69842 4.64544 2.00243 5.78461 1.53286C6.92379 1.06329 8.14647 0.829878 9.37851 0.847077C13.276 0.847077 15.3119 3.09675 15.3119 6.17551C15.274 7.57598 14.9565 8.95494 14.378 10.2309H5.33369C5.30464 11.6837 6.29354 12.7762 8.27029 12.7762C9.73281 12.6814 11.1466 12.213 12.3763 11.4158ZM10.8645 7.15314C10.9521 6.90546 11.0011 6.64583 11.0097 6.38325C11.0097 5.5251 10.3404 4.90249 9.1191 4.90249C8.4192 4.88744 7.73304 5.098 7.16213 5.50316C6.59122 5.90831 6.16588 6.4865 5.94903 7.15212L10.8645 7.15314Z" fill="#3E1DAD"/>
</svg>
